<?xml version="1.0" standalone="no"?>
<!DOCTYPE svg PUBLIC "-//W3C//DTD SVG 20010904//EN"
 "http://www.w3.org/TR/2001/REC-SVG-20010904/DTD/svg10.dtd">
<svg version="1.0" xmlns="http://www.w3.org/2000/svg"
 width="813.000000pt" height="813.000000pt" viewBox="0 0 813.000000 813.000000"
 preserveAspectRatio="xMidYMid meet">

<g transform="translate(0.000000,813.000000) scale(0.100000,-0.100000)"
fill="#696969" stroke="none">
<path d="M6360 7527 c-32 -16 -68 -70 -76 -115 -9 -49 10 -80 76 -120 63 -38
108 -39 158 -3 32 22 62 85 62 129 0 34 -29 78 -66 103 -34 22 -116 25 -154 6z"/>
<path d="M3943 6924 c-19 -8 -31 -64 -48 -224 -9 -80 -29 -199 -44 -265 -16
-66 -35 -158 -42 -205 l-12 -84 -71 -76 c-54 -56 -85 -102 -125 -180 -101
-197 -155 -261 -266 -311 -38 -17 -93 -52 -121 -78 -27 -25 -81 -63 -120 -84
-38 -20 -91 -50 -119 -66 -66 -39 -211 -77 -375 -97 l-132 -17 -97 46 c-324
153 -466 225 -561 282 -111 67 -422 279 -590 403 -52 38 -138 93 -190 122 -52
29 -146 87 -208 129 -62 42 -161 106 -219 144 -113 72 -254 179 -316 239 -21
20 -59 43 -84 52 -52 18 -149 21 -158 6 -11 -18 16 -79 47 -105 39 -33 84 -52
145 -61 78 -11 222 -92 451 -252 56 -39 127 -85 159 -103 83 -46 184 -116 298
-204 104 -81 281 -207 483 -344 74 -50 142 -105 170 -138 52 -60 197 -179 280
-229 29 -18 69 -35 90 -39 51 -9 139 -57 208 -113 52 -43 61 -57 111 -172 84
-193 86 -198 68 -299 -20 -113 -19 -146 5 -215 22 -61 20 -106 -6 -158 -37
-72 -74 -85 -375 -133 -219 -34 -303 -53 -401 -91 -44 -17 -50 -17 -135 -1
-86 18 -90 17 -163 -2 -41 -11 -102 -22 -135 -26 -77 -8 -351 -73 -388 -92
-23 -12 -28 -20 -25 -46 4 -44 35 -46 146 -8 49 17 103 31 120 31 16 0 58 9
93 19 124 38 412 71 789 91 107 6 252 18 322 26 70 9 139 13 154 10 32 -8 54
-58 54 -120 0 -42 -5 -51 -59 -111 -32 -35 -72 -88 -89 -117 -58 -103 -299
-298 -418 -338 -33 -11 -114 -47 -179 -81 -66 -33 -144 -67 -175 -76 -73 -21
-139 -55 -173 -89 -34 -34 -31 -48 13 -52 65 -7 99 8 207 90 122 92 194 129
305 157 95 24 121 38 189 96 97 83 244 140 389 152 59 4 83 2 107 -10 47 -25
134 -127 189 -223 58 -101 142 -219 173 -240 25 -18 201 -64 243 -64 47 0 183
-58 217 -92 33 -34 52 -84 76 -196 8 -41 30 -108 48 -150 27 -66 32 -88 30
-152 0 -44 -12 -115 -27 -173 -31 -118 -32 -148 -5 -204 26 -54 58 -64 108
-37 75 41 90 89 91 295 0 134 0 137 29 175 52 71 173 167 205 162 15 -2 30
-26 56 -88 20 -47 55 -114 77 -150 38 -59 52 -97 68 -172 3 -15 14 -29 25 -33
49 -16 129 -140 154 -240 16 -65 51 -267 61 -355 4 -30 17 -105 31 -165 17
-81 26 -161 32 -300 5 -123 13 -199 21 -214 l14 -25 12 25 c18 34 45 141 45
178 0 18 -11 54 -25 82 -19 37 -28 76 -35 147 -4 53 -20 144 -34 202 l-26 105
17 89 17 89 -33 91 c-115 314 -167 552 -126 586 21 17 219 -12 255 -38 42 -30
68 -98 90 -237 22 -131 30 -155 57 -155 20 0 14 36 -48 312 -59 259 -61 298
-20 339 34 34 92 40 130 13 23 -16 23 -20 17 -113 -5 -79 -4 -100 9 -116 15
-19 15 -19 29 -1 8 10 17 44 21 75 15 144 37 206 133 366 76 128 91 138 160
114 26 -9 40 -6 100 20 81 36 118 39 146 12 21 -19 22 -19 76 -1 30 9 161 32
290 49 393 53 389 51 430 135 19 39 20 54 14 147 -5 86 -3 122 15 208 24 114
20 147 -24 199 -12 15 -45 66 -73 113 -28 48 -85 124 -127 169 -77 84 -92 112
-81 155 6 22 2 28 -27 40 -40 17 -52 30 -61 70 -4 16 -25 56 -47 89 -21 32
-39 68 -39 79 0 28 88 108 162 147 33 18 75 46 94 62 29 26 61 37 215 73 99
23 182 45 186 49 3 3 -25 6 -63 6 -90 1 -255 17 -305 30 -21 6 -45 18 -51 27
-66 85 -160 145 -285 183 -57 17 -73 26 -73 41 0 17 -8 19 -77 19 -94 0 -142
12 -183 46 -26 22 -30 33 -30 72 0 139 56 235 270 467 109 117 154 176 203
265 46 85 98 152 249 319 170 189 186 203 291 265 134 79 177 130 177 212 0
33 -1 34 -37 34 -35 0 -45 -7 -123 -92 -47 -50 -199 -208 -338 -350 -365 -375
-462 -489 -462 -547 0 -81 -134 -191 -233 -191 -42 0 -92 35 -171 121 -90 97
-105 138 -116 321 -5 84 -16 175 -25 202 -24 76 -19 104 30 186 25 41 45 81
45 88 0 19 48 110 90 172 21 30 41 65 45 78 8 28 -10 52 -40 52 -41 0 -69 -50
-86 -154 -12 -72 -48 -144 -101 -202 -46 -50 -64 -53 -131 -24 -90 40 -247 38
-309 -3 -38 -26 -63 -60 -164 -222 -88 -141 -139 -196 -206 -225 -54 -23 -166
-40 -209 -31 -49 11 -114 65 -140 117 -22 44 -24 62 -24 184 l0 135 49 140
c42 118 49 152 50 217 1 63 -3 81 -20 105 -20 27 -62 39 -91 27z m-443 -1789
c0 -8 4 -15 9 -15 22 0 71 -53 71 -76 0 -21 -5 -24 -36 -24 -25 0 -41 7 -53
22 -20 24 -41 17 -41 -12 0 -13 16 -28 49 -44 66 -34 81 -51 81 -92 0 -40 -36
-84 -69 -84 -14 0 -19 -5 -16 -20 3 -16 -2 -20 -21 -20 -17 0 -24 5 -24 20 0
11 -7 20 -15 20 -23 0 -74 52 -77 80 -3 23 1 25 40 28 31 2 42 -1 42 -11 0
-21 25 -38 44 -31 27 11 14 38 -29 57 -63 30 -85 55 -85 99 0 43 24 74 65 84
14 3 25 12 25 20 0 8 9 14 20 14 11 0 20 -7 20 -15z m-336 -32 c2 -10 5 -62 4
-117 0 -72 4 -101 14 -107 20 -13 35 -11 52 7 13 12 16 39 16 125 l0 109 40 0
40 0 0 -122 c0 -131 -7 -151 -57 -177 -30 -15 -109 -14 -142 3 -42 22 -51 55
-51 181 l0 115 39 0 c29 0 41 -5 45 -17z m655 -10 c16 -16 32 -38 36 -50 6
-21 3 -23 -35 -23 -31 0 -46 6 -59 21 -12 16 -23 20 -39 15 -24 -8 -29 -28 -9
-43 6 -5 33 -17 58 -27 26 -9 55 -26 65 -37 25 -28 23 -84 -4 -111 -29 -29
-125 -37 -170 -14 -38 19 -67 60 -58 81 7 20 86 21 86 1 0 -23 28 -39 56 -32
40 10 26 37 -33 61 -90 36 -121 82 -93 135 16 31 61 49 117 50 44 0 58 -5 82
-27z m-247 -426 c96 -47 173 -149 204 -266 24 -94 16 -350 -14 -442 -71 -217
-250 -353 -484 -367 l-88 -5 0 107 0 106 54 0 c128 0 238 72 270 176 6 20 3
20 -51 -8 -52 -26 -66 -29 -133 -26 -164 8 -273 113 -301 289 -26 166 33 320
155 404 77 53 125 65 236 62 81 -2 104 -7 152 -30z m894 -4 c96 -50 153 -124
190 -248 23 -80 24 -320 0 -418 -58 -244 -264 -406 -519 -407 l-68 0 3 103 3
102 75 6 c81 7 158 38 196 81 19 20 64 99 64 112 0 2 -27 -9 -61 -26 -55 -28
-68 -30 -132 -26 -163 11 -264 104 -298 277 -33 171 37 351 168 428 73 43 120
53 223 50 83 -3 102 -7 156 -34z m644 -63 c0 -30 -1 -30 -55 -30 -46 0 -55 -3
-55 -18 0 -14 9 -19 37 -20 56 -4 83 -34 83 -95 0 -40 -5 -53 -29 -78 -56 -56
-159 -31 -177 44 -6 26 -4 27 29 27 25 0 40 -6 51 -21 21 -31 46 -18 46 24 0
42 -23 66 -45 47 -9 -7 -26 -9 -45 -5 -33 7 -34 13 -24 103 l7 52 88 0 89 0 0
-30z m221 1 c28 -28 29 -33 29 -121 0 -88 -1 -93 -29 -121 -24 -24 -38 -29
-76 -29 -73 0 -105 47 -105 154 0 99 34 145 108 146 35 0 49 -6 73 -29z m-460
-217 c20 -24 -1 -49 -42 -49 -28 0 -35 4 -37 24 -6 39 52 58 79 25z m-1 -446
c0 -2 -22 -73 -49 -158 -48 -154 -49 -155 -80 -158 -17 -2 -31 -2 -31 0 0 4
88 288 95 306 3 9 65 19 65 10z m190 -80 c0 -9 3 -9 12 0 15 15 70 16 85 1 8
-8 17 -8 31 0 33 17 74 13 99 -11 21 -19 23 -30 23 -115 l0 -93 -40 0 -40 0 0
79 c0 47 -5 83 -11 87 -22 13 -34 -18 -34 -89 l-1 -72 -37 -3 -37 -3 0 73 c0
129 -37 136 -42 8 l-3 -75 -37 -3 -37 -3 -3 98 c-4 130 -3 133 38 133 20 0 34
-5 34 -12z m440 -15 c42 -38 55 -111 21 -120 -21 -5 -21 -6 -5 -25 16 -17 16
-20 2 -35 -21 -20 -108 -29 -137 -13 -33 17 -61 70 -61 114 0 30 7 45 34 72
45 45 101 47 146 7z m232 -3 c10 -12 18 -28 18 -36 0 -21 -70 -18 -85 3 -7 9
-17 13 -23 9 -22 -13 -12 -25 31 -37 78 -21 100 -67 52 -114 -48 -48 -175 -22
-175 36 0 15 7 19 34 19 21 0 36 -6 40 -15 6 -17 32 -20 41 -5 3 5 -7 15 -22
21 -81 33 -99 52 -89 95 14 55 139 72 178 24z"/>
<path d="M3371 4482 c-87 -43 -110 -227 -40 -306 49 -56 132 -55 183 2 16 19
18 33 14 110 -7 114 -33 177 -82 197 -43 18 -34 18 -75 -3z"/>
<path d="M4273 4492 c-31 -5 -80 -64 -94 -114 -14 -54 -6 -139 18 -181 41 -72
137 -84 196 -26 l30 30 -6 90 c-7 98 -22 143 -58 175 -27 23 -53 31 -86 26z"/>
<path d="M5242 4558 c-17 -17 -15 -130 1 -153 24 -31 37 -8 37 65 0 93 -10
116 -38 88z"/>
<path d="M5412 3798 c-19 -19 -14 -28 18 -28 17 0 30 4 30 8 0 9 -21 32 -30
32 -3 0 -11 -5 -18 -12z"/>
<path d="M5424 3709 c12 -8 25 -8 40 -1 18 9 16 11 -19 11 -33 0 -37 -1 -21
-10z"/>
<path d="M7105 6185 c-58 -21 -95 -66 -95 -116 0 -35 6 -47 35 -75 64 -60 132
-53 208 21 52 52 50 84 -7 141 -48 49 -72 53 -141 29z"/>
<path d="M7813 5090 c-23 -5 -58 -17 -79 -28 -34 -18 -36 -20 -18 -30 56 -29
186 -25 227 8 20 17 21 20 6 35 -20 20 -80 27 -136 15z"/>
<path d="M7354 4964 c-18 -14 -15 -15 35 -9 78 9 100 24 35 25 -31 0 -58 -6
-70 -16z"/>
<path d="M7125 4930 c-7 -11 9 -11 45 0 24 8 24 8 -7 9 -17 1 -35 -3 -38 -9z"/>
<path d="M6730 4880 c0 -5 9 -10 20 -10 11 0 20 5 20 10 0 6 -9 10 -20 10 -11
0 -20 -4 -20 -10z"/>
</g>
</svg>
